<svg aria-hidden="true" style="width:0;height:0;position:absolute;overflow:hidden" xmlns="http://www.w3.org/2000/svg"><defs><symbol id="menu-left-icon" viewBox="0 0 32 32"><path d="M2.667 7.993c0-.733.595-1.327 1.327-1.327h10.68a1.326 1.326 0 0 1 0 2.654H3.994a1.326 1.326 0 0 1-1.327-1.327zm0 8.007c0-.733.595-1.327 1.327-1.327h24.013a1.326 1.326 0 0 1 0 2.654H3.994A1.326 1.326 0 0 1 2.667 16zm1.326 6.68a1.326 1.326 0 0 0 0 2.654h16.013a1.326 1.326 0 0 0 0-2.654H3.993z"/></symbol><symbol id="vector-dotted-icon" viewBox="0 0 32 32"><path d="M29.082.314h-4.009c-1.237 0-2.24.983-2.24 2.195v3.929c0 1.212 1.003 2.195 2.24 2.195h4.009c1.237 0 2.24-.983 2.24-2.195V2.509c0-1.212-1.003-2.195-2.24-2.195zM6.73 23.04H2.412C1.08 23.04 0 24.023 0 25.235v3.929c0 1.213 1.08 2.195 2.412 2.195H6.73c1.332 0 2.412-.983 2.412-2.195v-3.929c0-1.212-1.08-2.195-2.412-2.195zm-.48-11.458H2.241c-1.237 0-2.24.983-2.24 2.195v3.929c0 1.212 1.003 2.195 2.24 2.195H6.25c1.237 0 2.24-.983 2.24-2.195v-3.929c0-1.212-1.003-2.195-2.24-2.195zm11.516 11.396h-4.009c-1.237 0-2.24.983-2.24 2.195v3.929c0 1.212 1.003 2.195 2.241 2.195h4.009c1.237 0 2.24-.983 2.24-2.195v-3.929c0-1.213-1.003-2.195-2.24-2.195zM6.25.086H2.241c-1.237 0-2.24.983-2.24 2.195V6.21c0 1.212 1.003 2.195 2.24 2.195H6.25c1.237 0 2.24-.983 2.24-2.195V2.281C8.49 1.069 7.487.086 6.25.086zm11.826 11.611h-4.009c-1.237 0-2.24.983-2.24 2.195v3.929c0 1.212 1.003 2.195 2.24 2.195h4.009c1.237 0 2.24-.983 2.24-2.195v-3.929c0-1.212-1.003-2.195-2.24-2.195zm11.257 11.281h-4.01c-1.237 0-2.24.983-2.24 2.195v3.929c0 1.212 1.003 2.195 2.24 2.195h4.009c1.237 0 2.24-.983 2.24-2.195v-3.929c0-1.213-1.003-2.195-2.24-2.195zM17.591.224h-4.009c-1.237 0-2.24.983-2.24 2.195v3.929c0 1.212 1.003 2.195 2.24 2.195h4.009c1.237 0 2.24-.984 2.24-2.196V2.418c0-1.212-1.003-2.195-2.24-2.195zm11.453 11.702h-4.01c-1.237 0-2.24.983-2.24 2.195v3.929c0 1.212 1.003 2.195 2.24 2.195h4.009c1.237 0 2.24-.983 2.24-2.195v-3.929c0-1.212-1.003-2.195-2.24-2.195z"/></symbol><symbol id="uil_cart-icon" viewBox="0 0 32 32"><path d="M25.333 9.333h-4V8a5.332 5.332 0 1 0-10.666 0v1.333h-4a1.333 1.333 0 0 0-1.334 1.333v14.667a4.003 4.003 0 0 0 4 4h13.333a4 4 0 0 0 4-4V10.666a1.331 1.331 0 0 0-1.333-1.333zM13.333 8a2.668 2.668 0 0 1 5.334 0v1.333h-5.333V8zM24 25.333a1.333 1.333 0 0 1-1.333 1.334H9.334A1.334 1.334 0 0 1 8 25.333V12h2.667v1.333a1.335 1.335 0 0 0 2.277.943c.25-.25.39-.589.39-.943V12h5.333v1.333a1.333 1.333 0 1 0 2.666 0V12H24v13.333z"/></symbol><symbol id="arrow-icon" viewBox="0 0 32 32"><path d="M32 4.741 27.259 0v23.704L3.555 0-.001 3.556 23.703 27.26H-.001l4.741 4.741h27.259V4.742z"/></symbol><symbol id="facebook-icon" viewBox="0 0 32 32"><path d="M19 6h5V0h-5c-3.86 0-7 3.14-7 7v3H8v6h4v16h6V16h5l1-6h-6V7c0-.542.458-1 1-1z"/></symbol><symbol id="instagram-icon" viewBox="0 0 32 32"><path d="M27.929 11.073a8.685 8.685 0 0 0-.579-3.014l.02.06a6.18 6.18 0 0 0-3.469-3.496l-.042-.015a8.626 8.626 0 0 0-2.905-.56h-.009c-1.283-.057-1.689-.073-4.945-.073s-3.673 0-4.947.073a8.799 8.799 0 0 0-2.974.58l.06-.02a6.178 6.178 0 0 0-3.496 3.469l-.014.042a8.573 8.573 0 0 0-.559 2.905v.009c-.057 1.284-.075 1.691-.075 4.947s0 3.672.075 4.947a8.79 8.79 0 0 0 .559 2.916 6.184 6.184 0 0 0 3.47 3.495l.042.015c.86.347 1.856.564 2.899.6h.015c1.284.057 1.691.075 4.947.075s3.673 0 4.947-.075a8.755 8.755 0 0 0 2.975-.579l-.06.02a6.19 6.19 0 0 0 3.496-3.469l.015-.042a8.77 8.77 0 0 0 .559-2.916c.057-1.283.075-1.689.075-4.947-.003-3.256-.003-3.669-.077-4.945zM15.992 22.136c-3.405 0-6.164-2.759-6.164-6.164s2.759-6.164 6.164-6.164a6.164 6.164 0 0 1 0 12.328zm6.409-11.119H22.4a1.436 1.436 0 0 1-1.436-1.436V9.58a1.437 1.437 0 0 1 2.874 0c0 .795-.643 1.437-1.436 1.437z"/><path d="M19.996 15.972a4.004 4.004 0 1 1-8.009 0 4.004 4.004 0 0 1 8.009 0z"/></symbol><symbol id="youtube-icon" viewBox="0 0 32 32"><path d="M31.681 9.6s-.313-2.206-1.275-3.175C29.187 5.15 27.825 5.144 27.2 5.069c-4.475-.325-11.194-.325-11.194-.325h-.012s-6.719 0-11.194.325c-.625.075-1.987.081-3.206 1.356C.631 7.394.325 9.6.325 9.6s-.319 2.588-.319 5.181v2.425c0 2.587.319 5.181.319 5.181s.313 2.206 1.269 3.175c1.219 1.275 2.819 1.231 3.531 1.369 2.563.244 10.881.319 10.881.319s6.725-.012 11.2-.331c.625-.075 1.988-.081 3.206-1.356.962-.969 1.275-3.175 1.275-3.175s.319-2.587.319-5.181v-2.425c-.006-2.588-.325-5.181-.325-5.181zM12.694 20.15v-8.994l8.644 4.513-8.644 4.481z"/></symbol><symbol id="gg_menu-left-icon" viewBox="0 0 32 32"><path fill="#ae1332" style="fill:var(--color1,#ae1332)" d="M2.667 7.993c0-.733.595-1.327 1.327-1.327h10.68a1.326 1.326 0 0 1 0 2.654H3.994a1.326 1.326 0 0 1-1.327-1.327zm0 8.007c0-.733.595-1.327 1.327-1.327h24.013a1.326 1.326 0 0 1 0 2.654H3.994A1.326 1.326 0 0 1 2.667 16zm1.326 6.68a1.326 1.326 0 0 0 0 2.654h16.013a1.326 1.326 0 0 0 0-2.654H3.993z"/></symbol><symbol id="icon-x" viewBox="0 0 32 32"><path fill="none" style="stroke:var(--color1,#fff)" stroke-linejoin="round" stroke-linecap="round" stroke-width="2.286" d="m8 8 16 16M24 8 8 24"/></symbol></defs></svg>